Coordinates
version=1
nRows=22
nColumns=24
inDegrees=yes

Units are S.I. units (second, meters, Newtons, ...)
Angles are in degrees.

endheader
time	pelvis_tilt	pelvis_list	pelvis_rotation	pelvis_tx	pelvis_ty	pelvis_tz	hip_flexion_r	hip_adduction_r	hip_rotation_r	knee_angle_r	ankle_angle_r	subtalar_angle_r	mtp_angle_r	hip_flexion_l	hip_adduction_l	hip_rotation_l	knee_angle_l	ankle_angle_l	subtalar_angle_l	mtp_angle_l	lumbar_extension	lumbar_bending	lumbar_rotation
      5.52000000	     -8.00408711	     -7.96023736	      4.22276289	     -0.90051281	     -0.01754667	      2.03957028	      3.88443229	     13.09713913	     -9.64791340	     -8.52139982	      6.02588382	     -4.70979550	      5.45399094	     35.98402929	     -5.76519959	      1.26290420	    -45.91154741	     -2.76667152	     -6.55033483	     31.37698027	      4.69733973	      6.20063265	     -3.13734747
      5.53000000	     -8.24103236	     -7.69672518	      4.15665332	     -0.88873454	     -0.01868722	      2.03972306	      3.04335937	     12.92386362	     -9.67964919	     -8.02354997	      6.46313707	     -4.52141707	      5.50788698	     36.76448277	     -5.45235527	      0.61509611	    -42.99808858	     -2.58489670	     -5.74393292	     31.08539069	      4.80317151	      5.88208075	     -2.79359269
      5.54000000	     -8.34395019	     -7.45095459	      4.20045193	     -0.87686258	     -0.01987893	      2.03966305	      2.05199484	     12.76918706	     -9.85416239	     -7.50217303	      6.91211737	     -4.27945787	      5.53013360	     37.29016259	     -5.15106210	     -0.09863931	    -39.89311023	     -2.58518662	     -4.67938253	     30.91725154	      4.78378580	      5.58738664	     -2.58277750
      5.55000000	     -8.40855072	     -7.24872128	      4.27555880	     -0.86495130	     -0.02118561	      2.03951437	      1.05312633	     12.66163137	    -10.17215893	     -7.03167667	      7.36166989	     -3.96683845	      5.51254227	     37.66161325	     -4.90667930	     -0.89769794	    -36.63563608	     -2.81947756	     -3.37001348	     30.97649626	      4.72407004	      5.33583342	     -2.41100889
      5.56000000	     -8.41586367	     -7.08364498	      4.37117774	     -0.85297728	     -0.02254996	      2.03926506	      0.03660639	     12.59451599	    -10.62265386	     -6.64249489	      7.81215857	     -3.56161897	      5.44381004	     37.84855544	     -4.69905329	     -1.76128530	    -33.25781881	     -3.26338826	     -1.89677108	     31.31724372	      4.60782646	      5.13054186	     -2.26456005
      5.57000000	     -8.36444212	     -6.94424274	      4.47026164	     -0.84095891	     -0.02392935	      2.03892926	     -0.98191234	     12.55278349	    -11.19907013	     -6.36814329	      8.25655606	     -3.07984686	      5.32876821	     37.85161752	     -4.50005373	     -2.61662452	    -29.81163901	     -3.85706684	     -0.37373154	     31.87625837	      4.42621091	      4.96104798	     -2.16122320
      5.58000000	     -8.21485216	     -6.75155119	      4.68237114	     -0.82880699	     -0.02521248	      2.03828445	     -2.05765733	     12.43955405	    -11.89899247	     -6.20023226	      8.71914133	     -2.52599454	      5.01611560	     37.59531380	     -4.12013788	     -3.25209802	    -26.25168223	     -4.72868933	      0.77580565	     32.98715769	      4.15635763	      4.74321168	     -2.16134242
      5.59000000	     -8.19165728	     -6.65950052	      4.78571741	     -0.81658690	     -0.02671441	      2.03766408	     -2.88662598	     12.39289939	    -12.56885451	     -6.24994262	      9.12329407	     -1.93007137	      4.88705500	     37.44096915	     -3.87710654	     -3.88909801	    -22.91347722	     -5.14042362	      2.18541620	     33.22709377	      4.03418311	      4.64395595	     -2.11690451
      5.60000000	     -8.15193654	     -6.54139364	      4.87898822	     -0.80426576	     -0.02818689	      2.03690316	     -3.63539582	     12.26311199	    -13.27607122	     -6.51397035	      9.52132188	     -1.19145207	      4.91392421	     37.19658000	     -3.58121962	     -4.39678991	    -19.75480107	     -5.27638822	      3.49494386	     32.94773881	      3.89839567	      4.53116220	     -2.09665884
      5.61000000	     -8.00896723	     -6.30241703	      4.99509897	     -0.79170659	     -0.02946107	      2.03589704	     -4.42912210	     11.93301396	    -14.06783800	     -6.97788721	      9.99099544	     -0.12105442	      5.04357542	     36.71807974	     -3.11644132	     -4.65715884	    -16.75305918	     -5.21193848	      4.45907879	     32.08400445	      3.67116816	      4.31433320	     -2.09289738
      5.62000000	     -7.90747212	     -6.03176107	      5.10884883	     -0.77891612	     -0.03073072	      2.03470086	     -5.11314911	     11.51172316	    -14.68145216	     -7.59815017	     10.30686679	      0.80603816	      5.41421609	     36.26598441	     -2.57555092	     -4.56799064	    -14.21912730	     -4.43843095	      5.35142056	     28.05622232	      3.51524138	      4.07520176	     -2.14835762
      5.63000000	     -7.89032404	     -5.80684432	      5.12252389	     -0.76589116	     -0.03204831	      2.03352658	     -5.61068713	     11.05021690	    -15.26249970	     -8.46129112	     10.65515763	      2.02999870	      5.63169810	     35.86648364	     -2.15934169	     -4.54666991	    -11.92721551	     -4.05403788	      6.00249587	     27.34675934	      3.47494448	      3.88946649	     -2.13350809
      5.64000000	     -7.75486740	     -5.48375845	      5.14524899	     -0.75251603	     -0.03313872	      2.03224981	     -6.22864698	     10.46893534	    -15.54817009	     -9.38231754	     10.75831960	      2.94294118	      6.07739495	     35.31428211	     -1.63914705	     -4.20350476	    -10.19940069	     -3.15557652	      6.39858150	     23.70425897	      3.34060346	      3.60563171	     -2.18914854
      5.65000000	     -7.81621933	     -5.29768783	      5.02897682	     -0.73885088	     -0.03443263	      2.03109921	     -6.53366956	      9.94678635	    -15.75441850	    -10.53402869	     10.85507175	      4.09236275	      6.24688307	     35.04514737	     -1.35946012	     -4.08946894	     -9.00020834	     -2.61961840	      6.77974653	     23.31097807	      3.45876028	      3.45495770	     -2.14728490
      5.66000000	     -7.71262594	     -5.01310856	      4.96889711	     -0.72478403	     -0.03550612	      2.02991785	     -7.00796536	      9.32581819	    -15.85062950	    -11.74051377	     10.78077254	      5.06498636	      6.51599562	     34.60874848	     -0.98962092	     -3.88943637	     -8.40649405	     -2.04868680	      6.89598294	     22.34453798	      3.44488535	      3.18923941	     -2.22156349
      5.67000000	     -7.72596517	     -4.81161735	      4.76804756	     -0.71033739	     -0.03666670	      2.02887551	     -7.30471229	      8.75139227	    -15.74363153	    -13.04594372	     10.44623303	      5.95676399	      7.01042226	     34.38629552	     -0.79341839	     -3.75987851	     -8.53232844	     -1.45606416	      6.83635552	     21.49319800	      3.60996817	      3.00270798	     -2.12309090
      5.68000000	     -7.82993578	     -4.59094984	      4.50075636	     -0.69558535	     -0.03788544	      2.02795467	     -7.42737042	      8.14859273	    -15.40436553	    -14.49534242	      9.96219811	      6.55181731	      7.21128898	     34.30387542	     -0.63465940	     -3.73655536	     -9.19845602	     -1.32899867	      6.35752123	     21.38370155	      3.90511669	      2.77188536	     -1.98077274
      5.69000000	     -7.87820970	     -4.27008254	      4.41764018	     -0.68053982	     -0.03903345	      2.02672687	     -7.55218870	      7.40429739	    -15.42925236	    -16.06732833	      9.33218555	      7.40539181	      7.99325802	     34.15593842	     -0.27952984	     -3.54329047	    -10.20956285	     -1.77020980	      5.27048751	     20.72654215	      4.18153536	      2.41479633	     -2.08983221
      5.70000000	     -7.94383467	     -3.84397182	      4.27513831	     -0.66532027	     -0.03996907	      2.02554362	     -7.60139455	      6.51196340	    -15.49216461	    -17.65741109	      8.00639123	      8.10422710	     11.57840255	     34.03506548	      0.11447292	     -3.60051694	    -11.56713019	     -2.17681885	      4.11210387	     17.18191328	      4.48514647	      1.94460754	     -2.08342087
      5.71000000	     -8.20664086	     -3.37980353	      4.40355613	     -0.65027992	     -0.04098368	      2.02400697	     -7.26666720	      5.54229316	    -15.89233002	    -19.56298470	      6.84212589	      8.93380700	     12.68847973	     34.18332502	      0.71366019	     -3.44971960	    -12.90312463	     -3.63798820	      2.26185804	     15.35530576	      4.97166695	      1.37667034	     -2.35443486
      5.72000000	     -8.47554930	     -2.72617027	      4.39237672	     -0.63526957	     -0.04147245	      2.02273196	     -6.82868162	      4.31350520	    -16.30613185	    -21.48115610	      4.65116753	      9.51937520	     17.38165903	     34.38066135	      1.34923219	     -3.76809846	    -14.45081948	     -4.33646567	      1.06002097	     10.23062130	      5.43089713	      0.61228579	     -2.37975891
      5.73000000	     -8.87489616	     -2.04071235	      4.58409304	     -0.62035305	     -0.04187774	      2.02136276	     -6.10302482	      2.99975679	    -17.06657070	    -23.59251310	      2.08978445	     10.08242069	     21.23718779	     34.84073054	      2.08712442	     -4.10999453	    -16.02816422	     -5.58238202	     -0.02046338	      9.07343305	      6.00649004	     -0.24940510	     -2.58367623
